<?xml version="1.0" standalone="no"?>
<!DOCTYPE svg PUBLIC "-//W3C//DTD SVG 20010904//EN"
 "http://www.w3.org/TR/2001/REC-SVG-20010904/DTD/svg10.dtd">
<svg version="1.0" xmlns="http://www.w3.org/2000/svg"
 width="1277.000000pt" height="1277.000000pt" viewBox="0 0 1277.000000 1277.000000"
 preserveAspectRatio="xMidYMid meet">
<metadata>
Created by potrace 1.14, written by Peter Selinger 2001-2017
</metadata>
<g transform="translate(0.000000,1277.000000) scale(0.100000,-0.100000)"
fill="#000000" stroke="none">
<path d="M6289 12628 c-47 -79 -377 -627 -734 -1218 -356 -591 -878 -1457
-1160 -1925 -282 -467 -804 -1334 -1160 -1925 -357 -591 -678 -1124 -713
-1183 -55 -92 -63 -110 -51 -121 24 -22 3895 -2306 3909 -2306 13 0 3885 2284
3909 2306 11 10 5 26 -37 96 -27 45 -222 369 -432 718 -211 349 -613 1018
-895 1485 -282 468 -810 1345 -1175 1950 -365 605 -821 1362 -1014 1683 -193
320 -353 582 -356 582 -3 0 -44 -64 -91 -142z"/>
<path d="M2477 5494 c11 -16 141 -200 290 -409 148 -209 584 -823 968 -1365
912 -1285 1871 -2638 2547 -3590 49 -69 93 -125 98 -125 5 0 49 56 98 125 48
69 556 784 1128 1590 1369 1928 1902 2678 2336 3290 197 278 355 506 350 508
-4 1 -509 -294 -1122 -656 -613 -362 -1490 -880 -1949 -1151 -474 -280 -841
-491 -850 -488 -9 2 -887 518 -1950 1146 -1064 629 -1941 1145 -1949 1149 -12
4 -11 -1 5 -24z"/>
</g>
</svg>
