<svg width="157.368" height="18.336" viewBox="0 0 157.368 18.336" xmlns="http://www.w3.org/2000/svg">
    <g id="svgGroup" stroke-linecap="round" fill-rule="evenodd" font-size="9pt" stroke="currentColor"
        stroke-width="0.15mm" fill="currentColor" style="stroke:currentColor;stroke-width:0.15mm;fill:currentColor">
        <path
            d="M 2.28 18.048 L 0 18.048 L 0 1.248 L 2.28 1.248 L 2.28 8.424 L 10.56 8.424 L 10.56 1.248 L 12.84 1.248 L 12.84 18.048 L 10.56 18.048 L 10.56 10.392 L 2.28 10.392 L 2.28 18.048 Z"
            id="0" />
        <path
            d="M 22.298 18.154 A 8.762 8.762 0 0 0 24.12 18.336 Q 25.992 18.336 27.456 17.652 Q 28.92 16.968 29.952 15.78 A 7.833 7.833 0 0 0 30.27 15.389 A 8.336 8.336 0 0 0 31.524 13.008 A 9.726 9.726 0 0 0 31.734 12.305 A 10.667 10.667 0 0 0 32.064 9.624 A 11.572 11.572 0 0 0 32.045 8.957 A 9.945 9.945 0 0 0 31.524 6.264 Q 30.984 4.704 29.952 3.504 Q 28.92 2.304 27.444 1.632 A 7.182 7.182 0 0 0 26.03 1.161 A 8.741 8.741 0 0 0 24.12 0.96 A 9.444 9.444 0 0 0 22.625 1.074 A 7.119 7.119 0 0 0 19.872 2.1 Q 18.096 3.24 17.148 5.196 A 9.117 9.117 0 0 0 16.468 7.143 A 11.084 11.084 0 0 0 16.2 9.624 A 11.739 11.739 0 0 0 16.208 10.071 A 10.264 10.264 0 0 0 16.74 13.008 A 9.45 9.45 0 0 0 16.845 13.302 A 8.245 8.245 0 0 0 18.3 15.78 Q 19.32 16.968 20.784 17.652 A 6.994 6.994 0 0 0 22.298 18.154 Z M 24.12 16.368 Q 25.968 16.368 27.216 15.48 A 5.393 5.393 0 0 0 28.974 13.351 A 6.54 6.54 0 0 0 29.1 13.068 Q 29.736 11.544 29.736 9.624 Q 29.736 8.328 29.352 7.128 A 7.136 7.136 0 0 0 28.358 5.13 A 6.749 6.749 0 0 0 28.248 4.98 Q 27.528 4.032 26.484 3.48 A 4.781 4.781 0 0 0 24.704 2.956 A 5.899 5.899 0 0 0 24.12 2.928 A 5.781 5.781 0 0 0 22.562 3.13 A 4.691 4.691 0 0 0 21.108 3.816 Q 19.848 4.704 19.188 6.216 A 7.87 7.87 0 0 0 18.599 8.421 A 9.902 9.902 0 0 0 18.528 9.624 Q 18.528 10.92 18.9 12.132 A 7.051 7.051 0 0 0 19.903 14.183 A 6.701 6.701 0 0 0 19.992 14.304 Q 20.712 15.264 21.756 15.816 A 4.781 4.781 0 0 0 23.536 16.34 A 5.899 5.899 0 0 0 24.12 16.368 Z"
            id="1" />
        <path
            d="M 45.408 18.048 L 35.424 18.048 L 35.424 1.248 L 37.704 1.248 L 37.704 16.008 L 45.408 16.008 L 45.408 18.048 Z"
            id="2" />
        <path
            d="M 57.768 18.048 L 47.688 18.048 L 47.688 1.248 L 57.768 1.248 L 57.768 3.216 L 49.968 3.216 L 49.968 8.328 L 56.688 8.328 L 56.688 10.248 L 49.968 10.248 L 49.968 16.08 L 57.768 16.08 L 57.768 18.048 Z"
            id="3" />
        <path
            d="M 59.568 16.632 L 60.72 14.712 Q 61.584 15.432 62.664 15.888 A 5.604 5.604 0 0 0 63.953 16.25 A 7.708 7.708 0 0 0 65.184 16.344 A 6.715 6.715 0 0 0 66.275 16.261 Q 67.255 16.099 67.92 15.624 A 2.467 2.467 0 0 0 68.591 14.927 Q 68.928 14.388 68.928 13.68 A 2.866 2.866 0 0 0 68.847 12.986 A 2.356 2.356 0 0 0 68.64 12.444 A 1.943 1.943 0 0 0 68.352 12.047 Q 68.045 11.713 67.524 11.388 A 7.705 7.705 0 0 0 66.93 11.057 Q 66.297 10.737 65.392 10.387 A 28.462 28.462 0 0 0 65.088 10.272 A 21.699 21.699 0 0 1 63.982 9.809 Q 63.44 9.562 62.991 9.315 A 9.479 9.479 0 0 1 62.328 8.916 A 5.264 5.264 0 0 1 61.587 8.329 Q 61.116 7.876 60.852 7.356 A 4 4 0 0 1 60.487 6.235 A 5.503 5.503 0 0 1 60.408 5.28 Q 60.408 4.08 61.068 3.108 A 4.123 4.123 0 0 1 62.137 2.043 A 5.612 5.612 0 0 1 63.012 1.548 A 6.134 6.134 0 0 1 64.428 1.108 Q 65.06 0.988 65.782 0.965 A 10.854 10.854 0 0 1 66.12 0.96 Q 67.608 0.96 68.796 1.26 Q 69.984 1.56 71.112 2.112 L 70.272 4.056 Q 69.456 3.576 68.364 3.252 Q 67.272 2.928 66.072 2.928 A 6.525 6.525 0 0 0 65.105 2.995 Q 64.593 3.072 64.176 3.237 A 3.028 3.028 0 0 0 63.576 3.552 A 2.376 2.376 0 0 0 63.057 4.024 A 1.766 1.766 0 0 0 62.664 5.16 A 2.511 2.511 0 0 0 62.734 5.765 A 2.055 2.055 0 0 0 62.928 6.264 A 1.659 1.659 0 0 0 63.184 6.606 Q 63.454 6.889 63.91 7.163 A 5.64 5.64 0 0 0 63.972 7.2 A 7.921 7.921 0 0 0 64.504 7.481 Q 65.048 7.746 65.819 8.045 A 31.203 31.203 0 0 0 66.312 8.232 Q 67.637 8.725 68.571 9.253 A 8.521 8.521 0 0 1 69.276 9.696 Q 70.171 10.325 70.638 11.043 A 3.415 3.415 0 0 1 70.824 11.364 A 4.219 4.219 0 0 1 71.242 12.771 A 5.317 5.317 0 0 1 71.28 13.416 A 5.21 5.21 0 0 1 71.12 14.736 A 4.105 4.105 0 0 1 70.5 16.08 A 4.708 4.708 0 0 1 68.836 17.525 A 5.846 5.846 0 0 1 68.34 17.76 A 7.325 7.325 0 0 1 66.562 18.241 A 9.607 9.607 0 0 1 65.184 18.336 A 11.368 11.368 0 0 1 63.318 18.189 A 9.132 9.132 0 0 1 61.992 17.868 A 9.169 9.169 0 0 1 60.704 17.344 A 6.824 6.824 0 0 1 59.568 16.632 Z"
            id="4" />
        <path
            d="M 86.664 16.704 L 85.08 18.336 L 76.92 10.32 L 76.92 18.048 L 74.64 18.048 L 74.64 1.248 L 76.92 1.248 L 76.92 8.904 L 84.072 1.176 L 85.608 2.592 L 79.056 9.408 L 86.664 16.704 Z"
            id="5" />
        <path
            d="M 95.256 18.048 L 92.976 18.048 L 92.976 11.664 L 87.144 2.184 L 89.064 1.032 L 94.2 9.552 L 99.24 1.128 L 101.04 2.184 L 95.256 11.664 L 95.256 18.048 Z"
            id="6" />
        <path
            d="M 109.2 16.632 L 110.352 14.712 Q 111.216 15.432 112.296 15.888 A 5.604 5.604 0 0 0 113.585 16.25 A 7.708 7.708 0 0 0 114.816 16.344 A 6.715 6.715 0 0 0 115.907 16.261 Q 116.887 16.099 117.552 15.624 A 2.467 2.467 0 0 0 118.223 14.927 Q 118.56 14.388 118.56 13.68 A 2.866 2.866 0 0 0 118.479 12.986 A 2.356 2.356 0 0 0 118.272 12.444 A 1.943 1.943 0 0 0 117.984 12.047 Q 117.677 11.713 117.156 11.388 A 7.705 7.705 0 0 0 116.562 11.057 Q 115.929 10.737 115.024 10.387 A 28.462 28.462 0 0 0 114.72 10.272 A 21.699 21.699 0 0 1 113.614 9.809 Q 113.072 9.562 112.623 9.315 A 9.479 9.479 0 0 1 111.96 8.916 A 5.264 5.264 0 0 1 111.219 8.329 Q 110.748 7.876 110.484 7.356 A 4 4 0 0 1 110.119 6.235 A 5.503 5.503 0 0 1 110.04 5.28 Q 110.04 4.08 110.7 3.108 A 4.123 4.123 0 0 1 111.769 2.043 A 5.612 5.612 0 0 1 112.644 1.548 A 6.134 6.134 0 0 1 114.06 1.108 Q 114.692 0.988 115.414 0.965 A 10.854 10.854 0 0 1 115.752 0.96 Q 117.24 0.96 118.428 1.26 Q 119.616 1.56 120.744 2.112 L 119.904 4.056 Q 119.088 3.576 117.996 3.252 Q 116.904 2.928 115.704 2.928 A 6.525 6.525 0 0 0 114.737 2.995 Q 114.225 3.072 113.808 3.237 A 3.028 3.028 0 0 0 113.208 3.552 A 2.376 2.376 0 0 0 112.689 4.024 A 1.766 1.766 0 0 0 112.296 5.16 A 2.511 2.511 0 0 0 112.366 5.765 A 2.055 2.055 0 0 0 112.56 6.264 A 1.659 1.659 0 0 0 112.816 6.606 Q 113.086 6.889 113.542 7.163 A 5.64 5.64 0 0 0 113.604 7.2 A 7.921 7.921 0 0 0 114.136 7.481 Q 114.68 7.746 115.451 8.045 A 31.203 31.203 0 0 0 115.944 8.232 Q 117.269 8.725 118.203 9.253 A 8.521 8.521 0 0 1 118.908 9.696 Q 119.803 10.325 120.27 11.043 A 3.415 3.415 0 0 1 120.456 11.364 A 4.219 4.219 0 0 1 120.874 12.771 A 5.317 5.317 0 0 1 120.912 13.416 A 5.21 5.21 0 0 1 120.752 14.736 A 4.105 4.105 0 0 1 120.132 16.08 A 4.708 4.708 0 0 1 118.468 17.525 A 5.846 5.846 0 0 1 117.972 17.76 A 7.325 7.325 0 0 1 116.194 18.241 A 9.607 9.607 0 0 1 114.816 18.336 A 11.368 11.368 0 0 1 112.95 18.189 A 9.132 9.132 0 0 1 111.624 17.868 A 9.169 9.169 0 0 1 110.336 17.344 A 6.824 6.824 0 0 1 109.2 16.632 Z"
            id="8" />
        <path
            d="M 132.576 6.576 L 132.576 5.568 L 134.544 5.568 L 134.544 15.024 Q 134.544 15.778 134.847 16.097 A 0.712 0.712 0 0 0 134.988 16.212 Q 135.432 16.488 135.96 16.488 L 135.504 18.168 A 4.253 4.253 0 0 1 134.48 18.055 Q 133.128 17.719 132.745 16.387 A 3.261 3.261 0 0 1 132.72 16.296 Q 132.168 17.064 131.22 17.7 Q 130.272 18.336 128.808 18.336 Q 127.248 18.336 125.976 17.544 A 5.507 5.507 0 0 1 124.197 15.738 A 6.701 6.701 0 0 1 123.948 15.3 A 6.535 6.535 0 0 1 123.317 13.394 A 8.795 8.795 0 0 1 123.192 11.88 A 7.954 7.954 0 0 1 123.431 9.896 A 6.712 6.712 0 0 1 123.948 8.52 Q 124.704 7.032 126.036 6.156 A 5.351 5.351 0 0 1 128.723 5.291 A 6.573 6.573 0 0 1 129.096 5.28 A 5.42 5.42 0 0 1 130.246 5.398 A 4.489 4.489 0 0 1 131.052 5.652 A 6.24 6.24 0 0 1 132.081 6.203 A 5.305 5.305 0 0 1 132.576 6.576 Z M 132.384 14.856 L 132.384 8.16 Q 131.736 7.704 130.956 7.428 Q 130.176 7.152 129.312 7.152 A 3.822 3.822 0 0 0 128.119 7.333 A 3.366 3.366 0 0 0 127.284 7.74 A 3.912 3.912 0 0 0 126.079 9.042 A 4.791 4.791 0 0 0 125.904 9.372 A 4.959 4.959 0 0 0 125.483 10.734 A 6.643 6.643 0 0 0 125.4 11.808 Q 125.4 13.152 125.904 14.196 A 4.224 4.224 0 0 0 126.649 15.287 A 3.767 3.767 0 0 0 127.296 15.828 Q 128.184 16.416 129.288 16.416 Q 130.2 16.416 131.016 15.972 Q 131.832 15.528 132.384 14.856 Z"
            id="9" />
        <path
            d="M 141.24 18.048 L 139.08 18.048 L 139.08 7.896 L 137.16 7.896 L 137.16 6.024 L 139.08 6.024 L 139.08 4.56 Q 139.08 2.469 140.233 1.249 A 3.926 3.926 0 0 1 140.256 1.224 A 3.928 3.928 0 0 1 142.753 0.03 A 5.391 5.391 0 0 1 143.328 0 A 7.196 7.196 0 0 1 144.17 0.047 Q 144.589 0.096 144.953 0.198 A 4.292 4.292 0 0 1 145.056 0.228 Q 145.8 0.456 146.472 0.792 L 145.824 2.616 A 9.35 9.35 0 0 0 144.957 2.219 A 10.532 10.532 0 0 0 144.744 2.136 A 3.401 3.401 0 0 0 143.875 1.939 A 4.165 4.165 0 0 0 143.472 1.92 A 2.593 2.593 0 0 0 142.745 2.017 A 1.99 1.99 0 0 0 141.852 2.556 Q 141.333 3.095 141.254 4.058 A 4.39 4.39 0 0 0 141.24 4.416 L 141.24 6.024 L 144.936 6.024 L 144.936 7.896 L 141.24 7.896 L 141.24 18.048 Z"
            id="10" />
        <path
            d="M 157.296 12.696 L 148.56 12.696 Q 148.761 14.328 149.65 15.294 A 3.595 3.595 0 0 0 149.784 15.432 A 3.395 3.395 0 0 0 151.614 16.347 A 4.805 4.805 0 0 0 152.448 16.416 Q 153.528 16.416 154.392 16.188 Q 155.256 15.96 156.048 15.6 L 156.552 17.448 Q 155.688 17.832 154.608 18.084 A 9.339 9.339 0 0 1 153.386 18.281 A 12.486 12.486 0 0 1 152.184 18.336 A 6.796 6.796 0 0 1 150.325 18.095 A 5.066 5.066 0 0 1 147.924 16.62 A 5.645 5.645 0 0 1 146.675 14.33 Q 146.433 13.491 146.372 12.492 A 11.31 11.31 0 0 1 146.352 11.808 A 8.486 8.486 0 0 1 146.552 9.931 A 6.922 6.922 0 0 1 147.06 8.46 Q 147.768 6.984 149.04 6.132 A 5.052 5.052 0 0 1 151.502 5.299 A 6.289 6.289 0 0 1 151.992 5.28 Q 153.792 5.28 154.98 6.06 Q 156.168 6.84 156.768 8.16 Q 157.368 9.48 157.368 11.064 A 18.049 18.049 0 0 1 157.298 12.671 A 16.643 16.643 0 0 1 157.296 12.696 Z M 148.536 10.944 L 155.376 10.944 A 5.845 5.845 0 0 0 155.279 9.844 Q 155.16 9.223 154.895 8.738 A 2.981 2.981 0 0 0 154.464 8.136 A 2.997 2.997 0 0 0 152.793 7.23 A 4.415 4.415 0 0 0 151.944 7.152 Q 150.552 7.152 149.64 8.124 Q 148.728 9.096 148.536 10.944 Z"
            id="11" />
    </g>
</svg>